<svg width="1200" height="800" viewBox="0 0 1200 800" fill="none" xmlns="http://www.w3.org/2000/svg">
  <rect width="1200" height="800" rx="40" fill="url(#bg)"/>
  <rect x="44" y="44" width="1112" height="712" rx="30" fill="url(#shell)" stroke="rgba(127, 231, 255, 0.08)"/>
  <circle cx="1014" cy="164" r="170" fill="url(#glow)" opacity="0.42"/>
  <circle cx="160" cy="650" r="190" fill="url(#glowSmall)" opacity="0.3"/>

  <text x="86" y="120" fill="#48D5F8" font-family="Avenir Next, SF Pro Display, sans-serif" font-size="28" font-weight="700" letter-spacing="8">FLIP CLOCK</text>
  <text x="86" y="158" fill="#5F7890" font-family="Avenir Next, SF Pro Display, sans-serif" font-size="20" font-weight="500" letter-spacing="2">Animated time interface with a focused motion-first layout</text>

  <g transform="translate(140 200)">
    <g>
      <rect width="198" height="252" rx="28" fill="url(#panel)"/>
      <path d="M0 126H198" stroke="url(#seam)" stroke-width="4"/>
      <rect x="18" y="18" width="162" height="104" rx="18" fill="rgba(255, 255, 255, 0.04)"/>
      <rect x="18" y="132" width="162" height="102" rx="18" fill="rgba(3, 10, 18, 0.34)"/>
      <text x="99" y="176" text-anchor="middle" fill="#F4FAFF" font-family="Avenir Next, SF Pro Display, sans-serif" font-size="142" font-weight="700">1</text>
    </g>
    <g transform="translate(232 0)">
      <rect width="198" height="252" rx="28" fill="url(#panel)"/>
      <path d="M0 126H198" stroke="url(#seam)" stroke-width="4"/>
      <rect x="18" y="18" width="162" height="104" rx="18" fill="rgba(255, 255, 255, 0.04)"/>
      <rect x="18" y="132" width="162" height="102" rx="18" fill="rgba(3, 10, 18, 0.34)"/>
      <text x="99" y="176" text-anchor="middle" fill="#F4FAFF" font-family="Avenir Next, SF Pro Display, sans-serif" font-size="142" font-weight="700">2</text>
    </g>
    <g transform="translate(486 62)">
      <circle cx="18" cy="38" r="10" fill="#7FE7FF"/>
      <circle cx="18" cy="116" r="10" fill="#7FE7FF"/>
    </g>
    <g transform="translate(560 0)">
      <rect width="198" height="252" rx="28" fill="url(#panel)"/>
      <path d="M0 126H198" stroke="url(#seam)" stroke-width="4"/>
      <rect x="18" y="18" width="162" height="104" rx="18" fill="rgba(255, 255, 255, 0.04)"/>
      <rect x="18" y="132" width="162" height="102" rx="18" fill="rgba(3, 10, 18, 0.34)"/>
      <text x="99" y="176" text-anchor="middle" fill="#F4FAFF" font-family="Avenir Next, SF Pro Display, sans-serif" font-size="142" font-weight="700">4</text>
    </g>
    <g transform="translate(792 0)">
      <rect width="198" height="252" rx="28" fill="url(#panel)"/>
      <path d="M0 126H198" stroke="url(#seam)" stroke-width="4"/>
      <rect x="18" y="18" width="162" height="104" rx="18" fill="rgba(255, 255, 255, 0.04)"/>
      <rect x="18" y="132" width="162" height="102" rx="18" fill="rgba(3, 10, 18, 0.34)"/>
      <text x="99" y="176" text-anchor="middle" fill="#F4FAFF" font-family="Avenir Next, SF Pro Display, sans-serif" font-size="142" font-weight="700">7</text>
    </g>
  </g>

  <g transform="translate(86 534)">
    <rect width="328" height="150" rx="26" fill="rgba(11, 23, 39, 0.9)"/>
    <text x="34" y="72" fill="#F4FAFF" font-family="Avenir Next, SF Pro Display, sans-serif" font-size="44" font-weight="600">Smooth flip</text>
    <text x="34" y="110" fill="#6C869D" font-family="Avenir Next, SF Pro Display, sans-serif" font-size="24">Segmented motion and readable timing states</text>
  </g>

  <g transform="translate(444 534)">
    <rect width="320" height="150" rx="26" fill="rgba(11, 23, 39, 0.72)"/>
    <text x="34" y="72" fill="#F4FAFF" font-family="Avenir Next, SF Pro Display, sans-serif" font-size="44" font-weight="600">Responsive</text>
    <text x="34" y="110" fill="#6C869D" font-family="Avenir Next, SF Pro Display, sans-serif" font-size="24">Built to stay balanced across desktop and mobile</text>
  </g>

  <g transform="translate(794 534)">
    <rect width="320" height="150" rx="26" fill="rgba(11, 23, 39, 0.72)"/>
    <text x="34" y="72" fill="#F4FAFF" font-family="Avenir Next, SF Pro Display, sans-serif" font-size="44" font-weight="600">Precise updates</text>
    <text x="34" y="110" fill="#6C869D" font-family="Avenir Next, SF Pro Display, sans-serif" font-size="24">Clean timing logic with no visual drift</text>
  </g>

  <defs>
    <linearGradient id="bg" x1="92" y1="38" x2="1124" y2="760" gradientUnits="userSpaceOnUse">
      <stop stop-color="#08111D"/>
      <stop offset="1" stop-color="#050C15"/>
    </linearGradient>
    <linearGradient id="shell" x1="90" y1="70" x2="1120" y2="734" gradientUnits="userSpaceOnUse">
      <stop stop-color="#0D1B2D"/>
      <stop offset="1" stop-color="#081320"/>
    </linearGradient>
    <linearGradient id="panel" x1="16" y1="12" x2="188" y2="240" gradientUnits="userSpaceOnUse">
      <stop stop-color="#152B43"/>
      <stop offset="1" stop-color="#0C1828"/>
    </linearGradient>
    <linearGradient id="seam" x1="0" y1="128" x2="198" y2="128" gradientUnits="userSpaceOnUse">
      <stop stop-color="#1B334B" stop-opacity="0"/>
      <stop offset="0.48" stop-color="#7FE7FF" stop-opacity="0.7"/>
      <stop offset="1" stop-color="#1B334B" stop-opacity="0"/>
    </linearGradient>
    <radialGradient id="glow" cx="0" cy="0" r="1" gradientUnits="userSpaceOnUse" gradientTransform="translate(1014 164) rotate(90) scale(170)">
      <stop stop-color="#48D5F8"/>
      <stop offset="1" stop-color="#48D5F8" stop-opacity="0"/>
    </radialGradient>
    <radialGradient id="glowSmall" cx="0" cy="0" r="1" gradientUnits="userSpaceOnUse" gradientTransform="translate(160 650) rotate(90) scale(190)">
      <stop stop-color="#7FE7FF"/>
      <stop offset="1" stop-color="#7FE7FF" stop-opacity="0"/>
    </radialGradient>
  </defs>
</svg>
